%TF.GenerationSoftware,KiCad,Pcbnew,(7.0.0-rc2-224-g3ecd6ec186)*%
%TF.CreationDate,2023-02-20T11:58:51+01:00*%
%TF.ProjectId,TA726,54413732-362e-46b6-9963-61645f706362,rev?*%
%TF.SameCoordinates,Original*%
%TF.FileFunction,Legend,Bot*%
%TF.FilePolarity,Positive*%
%FSLAX46Y46*%
G04 Gerber Fmt 4.6, Leading zero omitted, Abs format (unit mm)*
G04 Created by KiCad (PCBNEW (7.0.0-rc2-224-g3ecd6ec186)) date 2023-02-20 11:58:51*
%MOMM*%
%LPD*%
G01*
G04 APERTURE LIST*
%ADD10C,0.200000*%
%ADD11C,1.440000*%
%ADD12O,6.100000X1.600000*%
%ADD13C,0.800000*%
G04 APERTURE END LIST*
D10*
X202670400Y-98983723D02*
X202632304Y-98907533D01*
X202632304Y-98907533D02*
X202632304Y-98793247D01*
X202632304Y-98793247D02*
X202670400Y-98678961D01*
X202670400Y-98678961D02*
X202746590Y-98602771D01*
X202746590Y-98602771D02*
X202822780Y-98564676D01*
X202822780Y-98564676D02*
X202975161Y-98526580D01*
X202975161Y-98526580D02*
X203089447Y-98526580D01*
X203089447Y-98526580D02*
X203241828Y-98564676D01*
X203241828Y-98564676D02*
X203318019Y-98602771D01*
X203318019Y-98602771D02*
X203394209Y-98678961D01*
X203394209Y-98678961D02*
X203432304Y-98793247D01*
X203432304Y-98793247D02*
X203432304Y-98869438D01*
X203432304Y-98869438D02*
X203394209Y-98983723D01*
X203394209Y-98983723D02*
X203356114Y-99021819D01*
X203356114Y-99021819D02*
X203089447Y-99021819D01*
X203089447Y-99021819D02*
X203089447Y-98869438D01*
X203432304Y-99364676D02*
X202632304Y-99364676D01*
X202632304Y-99364676D02*
X203432304Y-99821819D01*
X203432304Y-99821819D02*
X202632304Y-99821819D01*
X203432304Y-100202771D02*
X202632304Y-100202771D01*
X202632304Y-100202771D02*
X202632304Y-100393247D01*
X202632304Y-100393247D02*
X202670400Y-100507533D01*
X202670400Y-100507533D02*
X202746590Y-100583723D01*
X202746590Y-100583723D02*
X202822780Y-100621818D01*
X202822780Y-100621818D02*
X202975161Y-100659914D01*
X202975161Y-100659914D02*
X203089447Y-100659914D01*
X203089447Y-100659914D02*
X203241828Y-100621818D01*
X203241828Y-100621818D02*
X203318019Y-100583723D01*
X203318019Y-100583723D02*
X203394209Y-100507533D01*
X203394209Y-100507533D02*
X203432304Y-100393247D01*
X203432304Y-100393247D02*
X203432304Y-100202771D01*
X219845895Y-100101409D02*
X219045895Y-99834742D01*
X219045895Y-99834742D02*
X219845895Y-99568076D01*
X219350657Y-99301409D02*
X219350657Y-98691886D01*
X203356114Y-91732019D02*
X203394209Y-91693923D01*
X203394209Y-91693923D02*
X203432304Y-91579638D01*
X203432304Y-91579638D02*
X203432304Y-91503447D01*
X203432304Y-91503447D02*
X203394209Y-91389161D01*
X203394209Y-91389161D02*
X203318019Y-91312971D01*
X203318019Y-91312971D02*
X203241828Y-91274876D01*
X203241828Y-91274876D02*
X203089447Y-91236780D01*
X203089447Y-91236780D02*
X202975161Y-91236780D01*
X202975161Y-91236780D02*
X202822780Y-91274876D01*
X202822780Y-91274876D02*
X202746590Y-91312971D01*
X202746590Y-91312971D02*
X202670400Y-91389161D01*
X202670400Y-91389161D02*
X202632304Y-91503447D01*
X202632304Y-91503447D02*
X202632304Y-91579638D01*
X202632304Y-91579638D02*
X202670400Y-91693923D01*
X202670400Y-91693923D02*
X202708495Y-91732019D01*
X202708495Y-92036780D02*
X202670400Y-92074876D01*
X202670400Y-92074876D02*
X202632304Y-92151066D01*
X202632304Y-92151066D02*
X202632304Y-92341542D01*
X202632304Y-92341542D02*
X202670400Y-92417733D01*
X202670400Y-92417733D02*
X202708495Y-92455828D01*
X202708495Y-92455828D02*
X202784685Y-92493923D01*
X202784685Y-92493923D02*
X202860876Y-92493923D01*
X202860876Y-92493923D02*
X202975161Y-92455828D01*
X202975161Y-92455828D02*
X203432304Y-91998685D01*
X203432304Y-91998685D02*
X203432304Y-92493923D01*
X219464942Y-92125857D02*
X219426847Y-92011571D01*
X219426847Y-92011571D02*
X219388752Y-91973476D01*
X219388752Y-91973476D02*
X219312561Y-91935380D01*
X219312561Y-91935380D02*
X219198276Y-91935380D01*
X219198276Y-91935380D02*
X219122085Y-91973476D01*
X219122085Y-91973476D02*
X219083990Y-92011571D01*
X219083990Y-92011571D02*
X219045895Y-92087761D01*
X219045895Y-92087761D02*
X219045895Y-92392523D01*
X219045895Y-92392523D02*
X219845895Y-92392523D01*
X219845895Y-92392523D02*
X219845895Y-92125857D01*
X219845895Y-92125857D02*
X219807800Y-92049666D01*
X219807800Y-92049666D02*
X219769704Y-92011571D01*
X219769704Y-92011571D02*
X219693514Y-91973476D01*
X219693514Y-91973476D02*
X219617323Y-91973476D01*
X219617323Y-91973476D02*
X219541133Y-92011571D01*
X219541133Y-92011571D02*
X219503038Y-92049666D01*
X219503038Y-92049666D02*
X219464942Y-92125857D01*
X219464942Y-92125857D02*
X219464942Y-92392523D01*
X219045895Y-91173476D02*
X219045895Y-91630619D01*
X219045895Y-91402047D02*
X219845895Y-91402047D01*
X219845895Y-91402047D02*
X219731609Y-91478238D01*
X219731609Y-91478238D02*
X219655419Y-91554428D01*
X219655419Y-91554428D02*
X219617323Y-91630619D01*
X219122085Y-97015380D02*
X219083990Y-97053476D01*
X219083990Y-97053476D02*
X219045895Y-97167761D01*
X219045895Y-97167761D02*
X219045895Y-97243952D01*
X219045895Y-97243952D02*
X219083990Y-97358238D01*
X219083990Y-97358238D02*
X219160180Y-97434428D01*
X219160180Y-97434428D02*
X219236371Y-97472523D01*
X219236371Y-97472523D02*
X219388752Y-97510619D01*
X219388752Y-97510619D02*
X219503038Y-97510619D01*
X219503038Y-97510619D02*
X219655419Y-97472523D01*
X219655419Y-97472523D02*
X219731609Y-97434428D01*
X219731609Y-97434428D02*
X219807800Y-97358238D01*
X219807800Y-97358238D02*
X219845895Y-97243952D01*
X219845895Y-97243952D02*
X219845895Y-97167761D01*
X219845895Y-97167761D02*
X219807800Y-97053476D01*
X219807800Y-97053476D02*
X219769704Y-97015380D01*
X219045895Y-96253476D02*
X219045895Y-96710619D01*
X219045895Y-96482047D02*
X219845895Y-96482047D01*
X219845895Y-96482047D02*
X219731609Y-96558238D01*
X219731609Y-96558238D02*
X219655419Y-96634428D01*
X219655419Y-96634428D02*
X219617323Y-96710619D01*
X219464942Y-89789057D02*
X219426847Y-89674771D01*
X219426847Y-89674771D02*
X219388752Y-89636676D01*
X219388752Y-89636676D02*
X219312561Y-89598580D01*
X219312561Y-89598580D02*
X219198276Y-89598580D01*
X219198276Y-89598580D02*
X219122085Y-89636676D01*
X219122085Y-89636676D02*
X219083990Y-89674771D01*
X219083990Y-89674771D02*
X219045895Y-89750961D01*
X219045895Y-89750961D02*
X219045895Y-90055723D01*
X219045895Y-90055723D02*
X219845895Y-90055723D01*
X219845895Y-90055723D02*
X219845895Y-89789057D01*
X219845895Y-89789057D02*
X219807800Y-89712866D01*
X219807800Y-89712866D02*
X219769704Y-89674771D01*
X219769704Y-89674771D02*
X219693514Y-89636676D01*
X219693514Y-89636676D02*
X219617323Y-89636676D01*
X219617323Y-89636676D02*
X219541133Y-89674771D01*
X219541133Y-89674771D02*
X219503038Y-89712866D01*
X219503038Y-89712866D02*
X219464942Y-89789057D01*
X219464942Y-89789057D02*
X219464942Y-90055723D01*
X219769704Y-89293819D02*
X219807800Y-89255723D01*
X219807800Y-89255723D02*
X219845895Y-89179533D01*
X219845895Y-89179533D02*
X219845895Y-88989057D01*
X219845895Y-88989057D02*
X219807800Y-88912866D01*
X219807800Y-88912866D02*
X219769704Y-88874771D01*
X219769704Y-88874771D02*
X219693514Y-88836676D01*
X219693514Y-88836676D02*
X219617323Y-88836676D01*
X219617323Y-88836676D02*
X219503038Y-88874771D01*
X219503038Y-88874771D02*
X219045895Y-89331914D01*
X219045895Y-89331914D02*
X219045895Y-88836676D01*
X203013257Y-88811076D02*
X203013257Y-89077742D01*
X203432304Y-89192028D02*
X203432304Y-88811076D01*
X203432304Y-88811076D02*
X202632304Y-88811076D01*
X202632304Y-88811076D02*
X202632304Y-89192028D01*
X202708495Y-89496790D02*
X202670400Y-89534886D01*
X202670400Y-89534886D02*
X202632304Y-89611076D01*
X202632304Y-89611076D02*
X202632304Y-89801552D01*
X202632304Y-89801552D02*
X202670400Y-89877743D01*
X202670400Y-89877743D02*
X202708495Y-89915838D01*
X202708495Y-89915838D02*
X202784685Y-89953933D01*
X202784685Y-89953933D02*
X202860876Y-89953933D01*
X202860876Y-89953933D02*
X202975161Y-89915838D01*
X202975161Y-89915838D02*
X203432304Y-89458695D01*
X203432304Y-89458695D02*
X203432304Y-89953933D01*
X219464942Y-95008723D02*
X219464942Y-94742057D01*
X219045895Y-94627771D02*
X219045895Y-95008723D01*
X219045895Y-95008723D02*
X219845895Y-95008723D01*
X219845895Y-95008723D02*
X219845895Y-94627771D01*
X219045895Y-93865866D02*
X219045895Y-94323009D01*
X219045895Y-94094437D02*
X219845895Y-94094437D01*
X219845895Y-94094437D02*
X219731609Y-94170628D01*
X219731609Y-94170628D02*
X219655419Y-94246818D01*
X219655419Y-94246818D02*
X219617323Y-94323009D01*
X202632304Y-93700590D02*
X203432304Y-93967257D01*
X203432304Y-93967257D02*
X202632304Y-94233923D01*
X203127542Y-94500590D02*
X203127542Y-95110114D01*
X203432304Y-94805352D02*
X202822780Y-94805352D01*
%LPC*%
D11*
%TO.C,RV1*%
X213842600Y-81864200D03*
X211302600Y-79324200D03*
X211302600Y-81864200D03*
X208762600Y-81864200D03*
%TD*%
D12*
%TO.C,J1*%
X207247462Y-99466399D03*
X207247462Y-96926399D03*
X207247462Y-94386399D03*
X207247462Y-91846399D03*
X207247462Y-89306399D03*
X215137462Y-89306399D03*
X215137462Y-91846399D03*
X215137462Y-94386399D03*
X215137462Y-96926399D03*
X215137462Y-99466399D03*
%TD*%
D13*
X219150500Y-93296583D03*
X218414600Y-101741400D03*
X217551399Y-89331800D03*
X203602170Y-92066322D03*
X203848512Y-93249888D03*
X210892336Y-94500109D03*
X218450999Y-90650000D03*
X211171812Y-91494588D03*
X206502000Y-86893400D03*
X204950000Y-80150000D03*
X212797600Y-102010000D03*
X217653305Y-80150001D03*
X207035400Y-103555800D03*
X215200001Y-86334602D03*
X203860400Y-99430000D03*
X204950000Y-83750000D03*
X218299998Y-98200000D03*
X207010000Y-101741398D03*
X210972400Y-102590600D03*
X208991200Y-103784400D03*
X203517500Y-100876100D03*
X212090000Y-98348800D03*
M02*
