%TF.GenerationSoftware,KiCad,Pcbnew,(7.0.0-rc2-224-g3ecd6ec186)*%
%TF.CreationDate,2023-02-20T11:58:51+01:00*%
%TF.ProjectId,TA726,54413732-362e-46b6-9963-61645f706362,rev?*%
%TF.SameCoordinates,Original*%
%TF.FileFunction,Soldermask,Top*%
%TF.FilePolarity,Negative*%
%FSLAX46Y46*%
G04 Gerber Fmt 4.6, Leading zero omitted, Abs format (unit mm)*
G04 Created by KiCad (PCBNEW (7.0.0-rc2-224-g3ecd6ec186)) date 2023-02-20 11:58:51*
%MOMM*%
%LPD*%
G01*
G04 APERTURE LIST*
G04 Aperture macros list*
%AMRoundRect*
0 Rectangle with rounded corners*
0 $1 Rounding radius*
0 $2 $3 $4 $5 $6 $7 $8 $9 X,Y pos of 4 corners*
0 Add a 4 corners polygon primitive as box body*
4,1,4,$2,$3,$4,$5,$6,$7,$8,$9,$2,$3,0*
0 Add four circle primitives for the rounded corners*
1,1,$1+$1,$2,$3*
1,1,$1+$1,$4,$5*
1,1,$1+$1,$6,$7*
1,1,$1+$1,$8,$9*
0 Add four rect primitives between the rounded corners*
20,1,$1+$1,$2,$3,$4,$5,0*
20,1,$1+$1,$4,$5,$6,$7,0*
20,1,$1+$1,$6,$7,$8,$9,0*
20,1,$1+$1,$8,$9,$2,$3,0*%
G04 Aperture macros list end*
%ADD10RoundRect,0.218750X-0.256250X0.218750X-0.256250X-0.218750X0.256250X-0.218750X0.256250X0.218750X0*%
%ADD11C,1.440000*%
%ADD12RoundRect,0.250000X-0.550000X1.050000X-0.550000X-1.050000X0.550000X-1.050000X0.550000X1.050000X0*%
%ADD13RoundRect,0.218750X0.256250X-0.218750X0.256250X0.218750X-0.256250X0.218750X-0.256250X-0.218750X0*%
%ADD14RoundRect,0.218750X-0.218750X-0.256250X0.218750X-0.256250X0.218750X0.256250X-0.218750X0.256250X0*%
%ADD15RoundRect,0.218750X0.218750X0.256250X-0.218750X0.256250X-0.218750X-0.256250X0.218750X-0.256250X0*%
%ADD16RoundRect,0.150000X-0.725000X-0.150000X0.725000X-0.150000X0.725000X0.150000X-0.725000X0.150000X0*%
%ADD17RoundRect,0.150000X-0.825000X-0.150000X0.825000X-0.150000X0.825000X0.150000X-0.825000X0.150000X0*%
%ADD18RoundRect,0.112500X0.112500X-0.187500X0.112500X0.187500X-0.112500X0.187500X-0.112500X-0.187500X0*%
%ADD19C,0.800000*%
G04 APERTURE END LIST*
D10*
%TO.C,R2*%
X204495400Y-101741400D03*
X204495400Y-103541400D03*
%TD*%
%TO.C,R5*%
X218414600Y-101741400D03*
X218414600Y-103541400D03*
%TD*%
D11*
%TO.C,RV1*%
X213842600Y-81864200D03*
X211302600Y-79324200D03*
X211302600Y-81864200D03*
X208762600Y-81864200D03*
%TD*%
D12*
%TO.C,C13*%
X217653307Y-80150000D03*
X217653307Y-83750000D03*
%TD*%
D13*
%TO.C,C1*%
X205409800Y-90739800D03*
X205409800Y-88939800D03*
%TD*%
D14*
%TO.C,C2*%
X216500000Y-98200000D03*
X218300000Y-98200000D03*
%TD*%
D12*
%TO.C,C12*%
X204950000Y-80150000D03*
X204950000Y-83750000D03*
%TD*%
D15*
%TO.C,R4*%
X212500000Y-103809800D03*
X210700000Y-103809800D03*
%TD*%
D14*
%TO.C,C3*%
X213400000Y-86334600D03*
X215200000Y-86334600D03*
%TD*%
%TO.C,R1*%
X210377200Y-86334600D03*
X212177200Y-86334600D03*
%TD*%
D16*
%TO.C,U2*%
X209050000Y-88230000D03*
X209050000Y-89500000D03*
X209050000Y-90770000D03*
X209050000Y-92040000D03*
X214200000Y-92040000D03*
X214200000Y-90770000D03*
X214200000Y-89500000D03*
X214200000Y-88230000D03*
%TD*%
D10*
%TO.C,R3*%
X207010000Y-101741400D03*
X207010000Y-103541400D03*
%TD*%
D17*
%TO.C,U1*%
X209175000Y-94390000D03*
X209175000Y-95660000D03*
X209175000Y-96930000D03*
X209175000Y-98200000D03*
X209175000Y-99470000D03*
X209175000Y-100740000D03*
X209175000Y-102010000D03*
X214125000Y-102010000D03*
X214125000Y-100740000D03*
X214125000Y-99470000D03*
X214125000Y-98200000D03*
X214125000Y-96930000D03*
X214125000Y-95660000D03*
X214125000Y-94390000D03*
%TD*%
D18*
%TO.C,D1*%
X218950000Y-88800000D03*
X218950000Y-86700000D03*
%TD*%
D19*
X219150500Y-93296583D03*
X218414600Y-101741400D03*
X217551399Y-89331800D03*
X203602170Y-92066322D03*
X203848512Y-93249888D03*
X210892336Y-94500109D03*
X218450999Y-90650000D03*
X211171812Y-91494588D03*
X206502000Y-86893400D03*
X204950000Y-80150000D03*
X212797600Y-102010000D03*
X217653305Y-80150001D03*
X207035400Y-103555800D03*
X215200001Y-86334602D03*
X203860400Y-99430000D03*
X204950000Y-83750000D03*
X218299998Y-98200000D03*
X207010000Y-101741398D03*
X210972400Y-102590600D03*
X208991200Y-103784400D03*
X203517500Y-100876100D03*
X212090000Y-98348800D03*
M02*
