%TF.GenerationSoftware,KiCad,Pcbnew,(7.0.0-rc2-224-g3ecd6ec186)*%
%TF.CreationDate,2023-02-20T11:58:51+01:00*%
%TF.ProjectId,TA726,54413732-362e-46b6-9963-61645f706362,rev?*%
%TF.SameCoordinates,Original*%
%TF.FileFunction,Legend,Top*%
%TF.FilePolarity,Positive*%
%FSLAX46Y46*%
G04 Gerber Fmt 4.6, Leading zero omitted, Abs format (unit mm)*
G04 Created by KiCad (PCBNEW (7.0.0-rc2-224-g3ecd6ec186)) date 2023-02-20 11:58:51*
%MOMM*%
%LPD*%
G01*
G04 APERTURE LIST*
G04 Aperture macros list*
%AMRoundRect*
0 Rectangle with rounded corners*
0 $1 Rounding radius*
0 $2 $3 $4 $5 $6 $7 $8 $9 X,Y pos of 4 corners*
0 Add a 4 corners polygon primitive as box body*
4,1,4,$2,$3,$4,$5,$6,$7,$8,$9,$2,$3,0*
0 Add four circle primitives for the rounded corners*
1,1,$1+$1,$2,$3*
1,1,$1+$1,$4,$5*
1,1,$1+$1,$6,$7*
1,1,$1+$1,$8,$9*
0 Add four rect primitives between the rounded corners*
20,1,$1+$1,$2,$3,$4,$5,0*
20,1,$1+$1,$4,$5,$6,$7,0*
20,1,$1+$1,$6,$7,$8,$9,0*
20,1,$1+$1,$8,$9,$2,$3,0*%
G04 Aperture macros list end*
%ADD10C,0.250000*%
%ADD11C,0.150000*%
%ADD12C,0.120000*%
%ADD13C,0.100000*%
%ADD14RoundRect,0.218750X-0.256250X0.218750X-0.256250X-0.218750X0.256250X-0.218750X0.256250X0.218750X0*%
%ADD15C,1.440000*%
%ADD16RoundRect,0.250000X-0.550000X1.050000X-0.550000X-1.050000X0.550000X-1.050000X0.550000X1.050000X0*%
%ADD17RoundRect,0.218750X0.256250X-0.218750X0.256250X0.218750X-0.256250X0.218750X-0.256250X-0.218750X0*%
%ADD18RoundRect,0.218750X-0.218750X-0.256250X0.218750X-0.256250X0.218750X0.256250X-0.218750X0.256250X0*%
%ADD19RoundRect,0.218750X0.218750X0.256250X-0.218750X0.256250X-0.218750X-0.256250X0.218750X-0.256250X0*%
%ADD20RoundRect,0.150000X-0.725000X-0.150000X0.725000X-0.150000X0.725000X0.150000X-0.725000X0.150000X0*%
%ADD21RoundRect,0.150000X-0.825000X-0.150000X0.825000X-0.150000X0.825000X0.150000X-0.825000X0.150000X0*%
%ADD22RoundRect,0.112500X0.112500X-0.187500X0.112500X0.187500X-0.112500X0.187500X-0.112500X-0.187500X0*%
%ADD23C,0.800000*%
G04 APERTURE END LIST*
D10*
X213307143Y-104082380D02*
X213878571Y-104082380D01*
X213592857Y-105082380D02*
X213592857Y-104082380D01*
X214164286Y-104796666D02*
X214640476Y-104796666D01*
X214069048Y-105082380D02*
X214402381Y-104082380D01*
X214402381Y-104082380D02*
X214735714Y-105082380D01*
X214973810Y-104082380D02*
X215640476Y-104082380D01*
X215640476Y-104082380D02*
X215211905Y-105082380D01*
X215973810Y-104177619D02*
X216021429Y-104130000D01*
X216021429Y-104130000D02*
X216116667Y-104082380D01*
X216116667Y-104082380D02*
X216354762Y-104082380D01*
X216354762Y-104082380D02*
X216450000Y-104130000D01*
X216450000Y-104130000D02*
X216497619Y-104177619D01*
X216497619Y-104177619D02*
X216545238Y-104272857D01*
X216545238Y-104272857D02*
X216545238Y-104368095D01*
X216545238Y-104368095D02*
X216497619Y-104510952D01*
X216497619Y-104510952D02*
X215926191Y-105082380D01*
X215926191Y-105082380D02*
X216545238Y-105082380D01*
X217402381Y-104082380D02*
X217211905Y-104082380D01*
X217211905Y-104082380D02*
X217116667Y-104130000D01*
X217116667Y-104130000D02*
X217069048Y-104177619D01*
X217069048Y-104177619D02*
X216973810Y-104320476D01*
X216973810Y-104320476D02*
X216926191Y-104510952D01*
X216926191Y-104510952D02*
X216926191Y-104891904D01*
X216926191Y-104891904D02*
X216973810Y-104987142D01*
X216973810Y-104987142D02*
X217021429Y-105034761D01*
X217021429Y-105034761D02*
X217116667Y-105082380D01*
X217116667Y-105082380D02*
X217307143Y-105082380D01*
X217307143Y-105082380D02*
X217402381Y-105034761D01*
X217402381Y-105034761D02*
X217450000Y-104987142D01*
X217450000Y-104987142D02*
X217497619Y-104891904D01*
X217497619Y-104891904D02*
X217497619Y-104653809D01*
X217497619Y-104653809D02*
X217450000Y-104558571D01*
X217450000Y-104558571D02*
X217402381Y-104510952D01*
X217402381Y-104510952D02*
X217307143Y-104463333D01*
X217307143Y-104463333D02*
X217116667Y-104463333D01*
X217116667Y-104463333D02*
X217021429Y-104510952D01*
X217021429Y-104510952D02*
X216973810Y-104558571D01*
X216973810Y-104558571D02*
X216926191Y-104653809D01*
D11*
%TO.C,R2*%
X202947428Y-103712828D02*
X202947428Y-103341400D01*
X202947428Y-103341400D02*
X203176000Y-103541400D01*
X203176000Y-103541400D02*
X203176000Y-103455685D01*
X203176000Y-103455685D02*
X203204571Y-103398543D01*
X203204571Y-103398543D02*
X203233142Y-103369971D01*
X203233142Y-103369971D02*
X203290285Y-103341400D01*
X203290285Y-103341400D02*
X203433142Y-103341400D01*
X203433142Y-103341400D02*
X203490285Y-103369971D01*
X203490285Y-103369971D02*
X203518857Y-103398543D01*
X203518857Y-103398543D02*
X203547428Y-103455685D01*
X203547428Y-103455685D02*
X203547428Y-103627114D01*
X203547428Y-103627114D02*
X203518857Y-103684257D01*
X203518857Y-103684257D02*
X203490285Y-103712828D01*
X202947428Y-103141399D02*
X202947428Y-102769971D01*
X202947428Y-102769971D02*
X203176000Y-102969971D01*
X203176000Y-102969971D02*
X203176000Y-102884256D01*
X203176000Y-102884256D02*
X203204571Y-102827114D01*
X203204571Y-102827114D02*
X203233142Y-102798542D01*
X203233142Y-102798542D02*
X203290285Y-102769971D01*
X203290285Y-102769971D02*
X203433142Y-102769971D01*
X203433142Y-102769971D02*
X203490285Y-102798542D01*
X203490285Y-102798542D02*
X203518857Y-102827114D01*
X203518857Y-102827114D02*
X203547428Y-102884256D01*
X203547428Y-102884256D02*
X203547428Y-103055685D01*
X203547428Y-103055685D02*
X203518857Y-103112828D01*
X203518857Y-103112828D02*
X203490285Y-103141399D01*
X202947428Y-102398542D02*
X202947428Y-102341399D01*
X202947428Y-102341399D02*
X202976000Y-102284256D01*
X202976000Y-102284256D02*
X203004571Y-102255685D01*
X203004571Y-102255685D02*
X203061714Y-102227113D01*
X203061714Y-102227113D02*
X203176000Y-102198542D01*
X203176000Y-102198542D02*
X203318857Y-102198542D01*
X203318857Y-102198542D02*
X203433142Y-102227113D01*
X203433142Y-102227113D02*
X203490285Y-102255685D01*
X203490285Y-102255685D02*
X203518857Y-102284256D01*
X203518857Y-102284256D02*
X203547428Y-102341399D01*
X203547428Y-102341399D02*
X203547428Y-102398542D01*
X203547428Y-102398542D02*
X203518857Y-102455685D01*
X203518857Y-102455685D02*
X203490285Y-102484256D01*
X203490285Y-102484256D02*
X203433142Y-102512827D01*
X203433142Y-102512827D02*
X203318857Y-102541399D01*
X203318857Y-102541399D02*
X203176000Y-102541399D01*
X203176000Y-102541399D02*
X203061714Y-102512827D01*
X203061714Y-102512827D02*
X203004571Y-102484256D01*
X203004571Y-102484256D02*
X202976000Y-102455685D01*
X202976000Y-102455685D02*
X202947428Y-102398542D01*
X203547428Y-101598541D02*
X203261714Y-101798541D01*
X203547428Y-101941398D02*
X202947428Y-101941398D01*
X202947428Y-101941398D02*
X202947428Y-101712827D01*
X202947428Y-101712827D02*
X202976000Y-101655684D01*
X202976000Y-101655684D02*
X203004571Y-101627113D01*
X203004571Y-101627113D02*
X203061714Y-101598541D01*
X203061714Y-101598541D02*
X203147428Y-101598541D01*
X203147428Y-101598541D02*
X203204571Y-101627113D01*
X203204571Y-101627113D02*
X203233142Y-101655684D01*
X203233142Y-101655684D02*
X203261714Y-101712827D01*
X203261714Y-101712827D02*
X203261714Y-101941398D01*
%TO.C,R5*%
X217205028Y-102712828D02*
X217205028Y-103055685D01*
X217205028Y-102884256D02*
X216605028Y-102884256D01*
X216605028Y-102884256D02*
X216690742Y-102941399D01*
X216690742Y-102941399D02*
X216747885Y-102998542D01*
X216747885Y-102998542D02*
X216776457Y-103055685D01*
X217205028Y-102455684D02*
X216605028Y-102455684D01*
X216976457Y-102398542D02*
X217205028Y-102227113D01*
X216805028Y-102227113D02*
X217033600Y-102455684D01*
D10*
%TO.C,RV1*%
X211130952Y-84567380D02*
X210559524Y-84567380D01*
X210845238Y-84567380D02*
X210845238Y-83567380D01*
X210845238Y-83567380D02*
X210750000Y-83710238D01*
X210750000Y-83710238D02*
X210654762Y-83805476D01*
X210654762Y-83805476D02*
X210559524Y-83853095D01*
X211559524Y-84567380D02*
X211559524Y-83567380D01*
X211654762Y-84186428D02*
X211940476Y-84567380D01*
X211940476Y-83900714D02*
X211559524Y-84281666D01*
D11*
%TO.C,C13*%
X219520428Y-83435714D02*
X219520428Y-83778571D01*
X219520428Y-83607142D02*
X218920428Y-83607142D01*
X218920428Y-83607142D02*
X219006142Y-83664285D01*
X219006142Y-83664285D02*
X219063285Y-83721428D01*
X219063285Y-83721428D02*
X219091857Y-83778571D01*
X218920428Y-83064285D02*
X218920428Y-83007142D01*
X218920428Y-83007142D02*
X218949000Y-82949999D01*
X218949000Y-82949999D02*
X218977571Y-82921428D01*
X218977571Y-82921428D02*
X219034714Y-82892856D01*
X219034714Y-82892856D02*
X219149000Y-82864285D01*
X219149000Y-82864285D02*
X219291857Y-82864285D01*
X219291857Y-82864285D02*
X219406142Y-82892856D01*
X219406142Y-82892856D02*
X219463285Y-82921428D01*
X219463285Y-82921428D02*
X219491857Y-82949999D01*
X219491857Y-82949999D02*
X219520428Y-83007142D01*
X219520428Y-83007142D02*
X219520428Y-83064285D01*
X219520428Y-83064285D02*
X219491857Y-83121428D01*
X219491857Y-83121428D02*
X219463285Y-83149999D01*
X219463285Y-83149999D02*
X219406142Y-83178570D01*
X219406142Y-83178570D02*
X219291857Y-83207142D01*
X219291857Y-83207142D02*
X219149000Y-83207142D01*
X219149000Y-83207142D02*
X219034714Y-83178570D01*
X219034714Y-83178570D02*
X218977571Y-83149999D01*
X218977571Y-83149999D02*
X218949000Y-83121428D01*
X218949000Y-83121428D02*
X218920428Y-83064285D01*
X219120428Y-82349999D02*
X219520428Y-82349999D01*
X219120428Y-82607141D02*
X219434714Y-82607141D01*
X219434714Y-82607141D02*
X219491857Y-82578570D01*
X219491857Y-82578570D02*
X219520428Y-82521427D01*
X219520428Y-82521427D02*
X219520428Y-82435713D01*
X219520428Y-82435713D02*
X219491857Y-82378570D01*
X219491857Y-82378570D02*
X219463285Y-82349999D01*
%TO.C,C1*%
X206460228Y-90568372D02*
X206460228Y-90682657D01*
X206460228Y-90682657D02*
X206488800Y-90739800D01*
X206488800Y-90739800D02*
X206517371Y-90768372D01*
X206517371Y-90768372D02*
X206603085Y-90825514D01*
X206603085Y-90825514D02*
X206717371Y-90854086D01*
X206717371Y-90854086D02*
X206945942Y-90854086D01*
X206945942Y-90854086D02*
X207003085Y-90825514D01*
X207003085Y-90825514D02*
X207031657Y-90796943D01*
X207031657Y-90796943D02*
X207060228Y-90739800D01*
X207060228Y-90739800D02*
X207060228Y-90625514D01*
X207060228Y-90625514D02*
X207031657Y-90568372D01*
X207031657Y-90568372D02*
X207003085Y-90539800D01*
X207003085Y-90539800D02*
X206945942Y-90511229D01*
X206945942Y-90511229D02*
X206803085Y-90511229D01*
X206803085Y-90511229D02*
X206745942Y-90539800D01*
X206745942Y-90539800D02*
X206717371Y-90568372D01*
X206717371Y-90568372D02*
X206688800Y-90625514D01*
X206688800Y-90625514D02*
X206688800Y-90739800D01*
X206688800Y-90739800D02*
X206717371Y-90796943D01*
X206717371Y-90796943D02*
X206745942Y-90825514D01*
X206745942Y-90825514D02*
X206803085Y-90854086D01*
X206717371Y-90168371D02*
X206688800Y-90225514D01*
X206688800Y-90225514D02*
X206660228Y-90254085D01*
X206660228Y-90254085D02*
X206603085Y-90282657D01*
X206603085Y-90282657D02*
X206574514Y-90282657D01*
X206574514Y-90282657D02*
X206517371Y-90254085D01*
X206517371Y-90254085D02*
X206488800Y-90225514D01*
X206488800Y-90225514D02*
X206460228Y-90168371D01*
X206460228Y-90168371D02*
X206460228Y-90054085D01*
X206460228Y-90054085D02*
X206488800Y-89996943D01*
X206488800Y-89996943D02*
X206517371Y-89968371D01*
X206517371Y-89968371D02*
X206574514Y-89939800D01*
X206574514Y-89939800D02*
X206603085Y-89939800D01*
X206603085Y-89939800D02*
X206660228Y-89968371D01*
X206660228Y-89968371D02*
X206688800Y-89996943D01*
X206688800Y-89996943D02*
X206717371Y-90054085D01*
X206717371Y-90054085D02*
X206717371Y-90168371D01*
X206717371Y-90168371D02*
X206745942Y-90225514D01*
X206745942Y-90225514D02*
X206774514Y-90254085D01*
X206774514Y-90254085D02*
X206831657Y-90282657D01*
X206831657Y-90282657D02*
X206945942Y-90282657D01*
X206945942Y-90282657D02*
X207003085Y-90254085D01*
X207003085Y-90254085D02*
X207031657Y-90225514D01*
X207031657Y-90225514D02*
X207060228Y-90168371D01*
X207060228Y-90168371D02*
X207060228Y-90054085D01*
X207060228Y-90054085D02*
X207031657Y-89996943D01*
X207031657Y-89996943D02*
X207003085Y-89968371D01*
X207003085Y-89968371D02*
X206945942Y-89939800D01*
X206945942Y-89939800D02*
X206831657Y-89939800D01*
X206831657Y-89939800D02*
X206774514Y-89968371D01*
X206774514Y-89968371D02*
X206745942Y-89996943D01*
X206745942Y-89996943D02*
X206717371Y-90054085D01*
X206460228Y-89568371D02*
X206460228Y-89511228D01*
X206460228Y-89511228D02*
X206488800Y-89454085D01*
X206488800Y-89454085D02*
X206517371Y-89425514D01*
X206517371Y-89425514D02*
X206574514Y-89396942D01*
X206574514Y-89396942D02*
X206688800Y-89368371D01*
X206688800Y-89368371D02*
X206831657Y-89368371D01*
X206831657Y-89368371D02*
X206945942Y-89396942D01*
X206945942Y-89396942D02*
X207003085Y-89425514D01*
X207003085Y-89425514D02*
X207031657Y-89454085D01*
X207031657Y-89454085D02*
X207060228Y-89511228D01*
X207060228Y-89511228D02*
X207060228Y-89568371D01*
X207060228Y-89568371D02*
X207031657Y-89625514D01*
X207031657Y-89625514D02*
X207003085Y-89654085D01*
X207003085Y-89654085D02*
X206945942Y-89682656D01*
X206945942Y-89682656D02*
X206831657Y-89711228D01*
X206831657Y-89711228D02*
X206688800Y-89711228D01*
X206688800Y-89711228D02*
X206574514Y-89682656D01*
X206574514Y-89682656D02*
X206517371Y-89654085D01*
X206517371Y-89654085D02*
X206488800Y-89625514D01*
X206488800Y-89625514D02*
X206460228Y-89568371D01*
X206660228Y-89111227D02*
X207260228Y-89111227D01*
X206688800Y-89111227D02*
X206660228Y-89054085D01*
X206660228Y-89054085D02*
X206660228Y-88939799D01*
X206660228Y-88939799D02*
X206688800Y-88882656D01*
X206688800Y-88882656D02*
X206717371Y-88854085D01*
X206717371Y-88854085D02*
X206774514Y-88825513D01*
X206774514Y-88825513D02*
X206945942Y-88825513D01*
X206945942Y-88825513D02*
X207003085Y-88854085D01*
X207003085Y-88854085D02*
X207031657Y-88882656D01*
X207031657Y-88882656D02*
X207060228Y-88939799D01*
X207060228Y-88939799D02*
X207060228Y-89054085D01*
X207060228Y-89054085D02*
X207031657Y-89111227D01*
%TO.C,C2*%
X216671428Y-99250428D02*
X216728571Y-99250428D01*
X216728571Y-99250428D02*
X216785714Y-99279000D01*
X216785714Y-99279000D02*
X216814286Y-99307571D01*
X216814286Y-99307571D02*
X216842857Y-99364714D01*
X216842857Y-99364714D02*
X216871428Y-99479000D01*
X216871428Y-99479000D02*
X216871428Y-99621857D01*
X216871428Y-99621857D02*
X216842857Y-99736142D01*
X216842857Y-99736142D02*
X216814286Y-99793285D01*
X216814286Y-99793285D02*
X216785714Y-99821857D01*
X216785714Y-99821857D02*
X216728571Y-99850428D01*
X216728571Y-99850428D02*
X216671428Y-99850428D01*
X216671428Y-99850428D02*
X216614286Y-99821857D01*
X216614286Y-99821857D02*
X216585714Y-99793285D01*
X216585714Y-99793285D02*
X216557143Y-99736142D01*
X216557143Y-99736142D02*
X216528571Y-99621857D01*
X216528571Y-99621857D02*
X216528571Y-99479000D01*
X216528571Y-99479000D02*
X216557143Y-99364714D01*
X216557143Y-99364714D02*
X216585714Y-99307571D01*
X216585714Y-99307571D02*
X216614286Y-99279000D01*
X216614286Y-99279000D02*
X216671428Y-99250428D01*
X217128572Y-99793285D02*
X217157143Y-99821857D01*
X217157143Y-99821857D02*
X217128572Y-99850428D01*
X217128572Y-99850428D02*
X217100000Y-99821857D01*
X217100000Y-99821857D02*
X217128572Y-99793285D01*
X217128572Y-99793285D02*
X217128572Y-99850428D01*
X217728571Y-99850428D02*
X217385714Y-99850428D01*
X217557143Y-99850428D02*
X217557143Y-99250428D01*
X217557143Y-99250428D02*
X217500000Y-99336142D01*
X217500000Y-99336142D02*
X217442857Y-99393285D01*
X217442857Y-99393285D02*
X217385714Y-99421857D01*
X218242858Y-99450428D02*
X218242858Y-99850428D01*
X217985715Y-99450428D02*
X217985715Y-99764714D01*
X217985715Y-99764714D02*
X218014286Y-99821857D01*
X218014286Y-99821857D02*
X218071429Y-99850428D01*
X218071429Y-99850428D02*
X218157143Y-99850428D01*
X218157143Y-99850428D02*
X218214286Y-99821857D01*
X218214286Y-99821857D02*
X218242858Y-99793285D01*
%TO.C,C12*%
X206820428Y-83435714D02*
X206820428Y-83778571D01*
X206820428Y-83607142D02*
X206220428Y-83607142D01*
X206220428Y-83607142D02*
X206306142Y-83664285D01*
X206306142Y-83664285D02*
X206363285Y-83721428D01*
X206363285Y-83721428D02*
X206391857Y-83778571D01*
X206220428Y-83064285D02*
X206220428Y-83007142D01*
X206220428Y-83007142D02*
X206249000Y-82949999D01*
X206249000Y-82949999D02*
X206277571Y-82921428D01*
X206277571Y-82921428D02*
X206334714Y-82892856D01*
X206334714Y-82892856D02*
X206449000Y-82864285D01*
X206449000Y-82864285D02*
X206591857Y-82864285D01*
X206591857Y-82864285D02*
X206706142Y-82892856D01*
X206706142Y-82892856D02*
X206763285Y-82921428D01*
X206763285Y-82921428D02*
X206791857Y-82949999D01*
X206791857Y-82949999D02*
X206820428Y-83007142D01*
X206820428Y-83007142D02*
X206820428Y-83064285D01*
X206820428Y-83064285D02*
X206791857Y-83121428D01*
X206791857Y-83121428D02*
X206763285Y-83149999D01*
X206763285Y-83149999D02*
X206706142Y-83178570D01*
X206706142Y-83178570D02*
X206591857Y-83207142D01*
X206591857Y-83207142D02*
X206449000Y-83207142D01*
X206449000Y-83207142D02*
X206334714Y-83178570D01*
X206334714Y-83178570D02*
X206277571Y-83149999D01*
X206277571Y-83149999D02*
X206249000Y-83121428D01*
X206249000Y-83121428D02*
X206220428Y-83064285D01*
X206420428Y-82349999D02*
X206820428Y-82349999D01*
X206420428Y-82607141D02*
X206734714Y-82607141D01*
X206734714Y-82607141D02*
X206791857Y-82578570D01*
X206791857Y-82578570D02*
X206820428Y-82521427D01*
X206820428Y-82521427D02*
X206820428Y-82435713D01*
X206820428Y-82435713D02*
X206791857Y-82378570D01*
X206791857Y-82378570D02*
X206763285Y-82349999D01*
%TO.C,R4*%
X210871428Y-104703028D02*
X211242856Y-104703028D01*
X211242856Y-104703028D02*
X211042856Y-104931600D01*
X211042856Y-104931600D02*
X211128571Y-104931600D01*
X211128571Y-104931600D02*
X211185714Y-104960171D01*
X211185714Y-104960171D02*
X211214285Y-104988742D01*
X211214285Y-104988742D02*
X211242856Y-105045885D01*
X211242856Y-105045885D02*
X211242856Y-105188742D01*
X211242856Y-105188742D02*
X211214285Y-105245885D01*
X211214285Y-105245885D02*
X211185714Y-105274457D01*
X211185714Y-105274457D02*
X211128571Y-105303028D01*
X211128571Y-105303028D02*
X210957142Y-105303028D01*
X210957142Y-105303028D02*
X210899999Y-105274457D01*
X210899999Y-105274457D02*
X210871428Y-105245885D01*
X211500000Y-105303028D02*
X211500000Y-104703028D01*
X211557143Y-105074457D02*
X211728571Y-105303028D01*
X211728571Y-104903028D02*
X211500000Y-105131600D01*
X211928571Y-104703028D02*
X212299999Y-104703028D01*
X212299999Y-104703028D02*
X212099999Y-104931600D01*
X212099999Y-104931600D02*
X212185714Y-104931600D01*
X212185714Y-104931600D02*
X212242857Y-104960171D01*
X212242857Y-104960171D02*
X212271428Y-104988742D01*
X212271428Y-104988742D02*
X212299999Y-105045885D01*
X212299999Y-105045885D02*
X212299999Y-105188742D01*
X212299999Y-105188742D02*
X212271428Y-105245885D01*
X212271428Y-105245885D02*
X212242857Y-105274457D01*
X212242857Y-105274457D02*
X212185714Y-105303028D01*
X212185714Y-105303028D02*
X212014285Y-105303028D01*
X212014285Y-105303028D02*
X211957142Y-105274457D01*
X211957142Y-105274457D02*
X211928571Y-105245885D01*
%TO.C,C3*%
X215820428Y-87078571D02*
X215820428Y-87021428D01*
X215820428Y-87021428D02*
X215849000Y-86964285D01*
X215849000Y-86964285D02*
X215877571Y-86935714D01*
X215877571Y-86935714D02*
X215934714Y-86907142D01*
X215934714Y-86907142D02*
X216049000Y-86878571D01*
X216049000Y-86878571D02*
X216191857Y-86878571D01*
X216191857Y-86878571D02*
X216306142Y-86907142D01*
X216306142Y-86907142D02*
X216363285Y-86935714D01*
X216363285Y-86935714D02*
X216391857Y-86964285D01*
X216391857Y-86964285D02*
X216420428Y-87021428D01*
X216420428Y-87021428D02*
X216420428Y-87078571D01*
X216420428Y-87078571D02*
X216391857Y-87135714D01*
X216391857Y-87135714D02*
X216363285Y-87164285D01*
X216363285Y-87164285D02*
X216306142Y-87192856D01*
X216306142Y-87192856D02*
X216191857Y-87221428D01*
X216191857Y-87221428D02*
X216049000Y-87221428D01*
X216049000Y-87221428D02*
X215934714Y-87192856D01*
X215934714Y-87192856D02*
X215877571Y-87164285D01*
X215877571Y-87164285D02*
X215849000Y-87135714D01*
X215849000Y-87135714D02*
X215820428Y-87078571D01*
X216363285Y-86621427D02*
X216391857Y-86592856D01*
X216391857Y-86592856D02*
X216420428Y-86621427D01*
X216420428Y-86621427D02*
X216391857Y-86649999D01*
X216391857Y-86649999D02*
X216363285Y-86621427D01*
X216363285Y-86621427D02*
X216420428Y-86621427D01*
X216420428Y-86021428D02*
X216420428Y-86364285D01*
X216420428Y-86192856D02*
X215820428Y-86192856D01*
X215820428Y-86192856D02*
X215906142Y-86249999D01*
X215906142Y-86249999D02*
X215963285Y-86307142D01*
X215963285Y-86307142D02*
X215991857Y-86364285D01*
X216020428Y-85507142D02*
X216420428Y-85507142D01*
X216020428Y-85764284D02*
X216334714Y-85764284D01*
X216334714Y-85764284D02*
X216391857Y-85735713D01*
X216391857Y-85735713D02*
X216420428Y-85678570D01*
X216420428Y-85678570D02*
X216420428Y-85592856D01*
X216420428Y-85592856D02*
X216391857Y-85535713D01*
X216391857Y-85535713D02*
X216363285Y-85507142D01*
%TO.C,R1*%
X208380056Y-86555028D02*
X208037199Y-86555028D01*
X208208628Y-86555028D02*
X208208628Y-85955028D01*
X208208628Y-85955028D02*
X208151485Y-86040742D01*
X208151485Y-86040742D02*
X208094342Y-86097885D01*
X208094342Y-86097885D02*
X208037199Y-86126457D01*
X208751485Y-85955028D02*
X208808628Y-85955028D01*
X208808628Y-85955028D02*
X208865771Y-85983600D01*
X208865771Y-85983600D02*
X208894343Y-86012171D01*
X208894343Y-86012171D02*
X208922914Y-86069314D01*
X208922914Y-86069314D02*
X208951485Y-86183600D01*
X208951485Y-86183600D02*
X208951485Y-86326457D01*
X208951485Y-86326457D02*
X208922914Y-86440742D01*
X208922914Y-86440742D02*
X208894343Y-86497885D01*
X208894343Y-86497885D02*
X208865771Y-86526457D01*
X208865771Y-86526457D02*
X208808628Y-86555028D01*
X208808628Y-86555028D02*
X208751485Y-86555028D01*
X208751485Y-86555028D02*
X208694343Y-86526457D01*
X208694343Y-86526457D02*
X208665771Y-86497885D01*
X208665771Y-86497885D02*
X208637200Y-86440742D01*
X208637200Y-86440742D02*
X208608628Y-86326457D01*
X208608628Y-86326457D02*
X208608628Y-86183600D01*
X208608628Y-86183600D02*
X208637200Y-86069314D01*
X208637200Y-86069314D02*
X208665771Y-86012171D01*
X208665771Y-86012171D02*
X208694343Y-85983600D01*
X208694343Y-85983600D02*
X208751485Y-85955028D01*
X209208629Y-86555028D02*
X209208629Y-85955028D01*
X209265772Y-86326457D02*
X209437200Y-86555028D01*
X209437200Y-86155028D02*
X209208629Y-86383600D01*
%TO.C,U2*%
X211295428Y-91892143D02*
X211295428Y-91777857D01*
X211295428Y-91777857D02*
X211324000Y-91720714D01*
X211324000Y-91720714D02*
X211381142Y-91663571D01*
X211381142Y-91663571D02*
X211495428Y-91635000D01*
X211495428Y-91635000D02*
X211695428Y-91635000D01*
X211695428Y-91635000D02*
X211809714Y-91663571D01*
X211809714Y-91663571D02*
X211866857Y-91720714D01*
X211866857Y-91720714D02*
X211895428Y-91777857D01*
X211895428Y-91777857D02*
X211895428Y-91892143D01*
X211895428Y-91892143D02*
X211866857Y-91949286D01*
X211866857Y-91949286D02*
X211809714Y-92006428D01*
X211809714Y-92006428D02*
X211695428Y-92035000D01*
X211695428Y-92035000D02*
X211495428Y-92035000D01*
X211495428Y-92035000D02*
X211381142Y-92006428D01*
X211381142Y-92006428D02*
X211324000Y-91949286D01*
X211324000Y-91949286D02*
X211295428Y-91892143D01*
X211895428Y-91377857D02*
X211295428Y-91377857D01*
X211295428Y-91377857D02*
X211295428Y-91149286D01*
X211295428Y-91149286D02*
X211324000Y-91092143D01*
X211324000Y-91092143D02*
X211352571Y-91063572D01*
X211352571Y-91063572D02*
X211409714Y-91035000D01*
X211409714Y-91035000D02*
X211495428Y-91035000D01*
X211495428Y-91035000D02*
X211552571Y-91063572D01*
X211552571Y-91063572D02*
X211581142Y-91092143D01*
X211581142Y-91092143D02*
X211609714Y-91149286D01*
X211609714Y-91149286D02*
X211609714Y-91377857D01*
X211895428Y-90749286D02*
X211895428Y-90635000D01*
X211895428Y-90635000D02*
X211866857Y-90577857D01*
X211866857Y-90577857D02*
X211838285Y-90549286D01*
X211838285Y-90549286D02*
X211752571Y-90492143D01*
X211752571Y-90492143D02*
X211638285Y-90463572D01*
X211638285Y-90463572D02*
X211409714Y-90463572D01*
X211409714Y-90463572D02*
X211352571Y-90492143D01*
X211352571Y-90492143D02*
X211324000Y-90520715D01*
X211324000Y-90520715D02*
X211295428Y-90577857D01*
X211295428Y-90577857D02*
X211295428Y-90692143D01*
X211295428Y-90692143D02*
X211324000Y-90749286D01*
X211324000Y-90749286D02*
X211352571Y-90777857D01*
X211352571Y-90777857D02*
X211409714Y-90806429D01*
X211409714Y-90806429D02*
X211552571Y-90806429D01*
X211552571Y-90806429D02*
X211609714Y-90777857D01*
X211609714Y-90777857D02*
X211638285Y-90749286D01*
X211638285Y-90749286D02*
X211666857Y-90692143D01*
X211666857Y-90692143D02*
X211666857Y-90577857D01*
X211666857Y-90577857D02*
X211638285Y-90520715D01*
X211638285Y-90520715D02*
X211609714Y-90492143D01*
X211609714Y-90492143D02*
X211552571Y-90463572D01*
X211295428Y-90263571D02*
X211295428Y-89863571D01*
X211295428Y-89863571D02*
X211895428Y-90120714D01*
X211581142Y-89434999D02*
X211581142Y-89634999D01*
X211895428Y-89634999D02*
X211295428Y-89634999D01*
X211295428Y-89634999D02*
X211295428Y-89349285D01*
X211866857Y-89149285D02*
X211895428Y-89063571D01*
X211895428Y-89063571D02*
X211895428Y-88920713D01*
X211895428Y-88920713D02*
X211866857Y-88863571D01*
X211866857Y-88863571D02*
X211838285Y-88834999D01*
X211838285Y-88834999D02*
X211781142Y-88806428D01*
X211781142Y-88806428D02*
X211724000Y-88806428D01*
X211724000Y-88806428D02*
X211666857Y-88834999D01*
X211666857Y-88834999D02*
X211638285Y-88863571D01*
X211638285Y-88863571D02*
X211609714Y-88920713D01*
X211609714Y-88920713D02*
X211581142Y-89034999D01*
X211581142Y-89034999D02*
X211552571Y-89092142D01*
X211552571Y-89092142D02*
X211524000Y-89120713D01*
X211524000Y-89120713D02*
X211466857Y-89149285D01*
X211466857Y-89149285D02*
X211409714Y-89149285D01*
X211409714Y-89149285D02*
X211352571Y-89120713D01*
X211352571Y-89120713D02*
X211324000Y-89092142D01*
X211324000Y-89092142D02*
X211295428Y-89034999D01*
X211295428Y-89034999D02*
X211295428Y-88892142D01*
X211295428Y-88892142D02*
X211324000Y-88806428D01*
X211295428Y-88606427D02*
X211295428Y-88206427D01*
X211295428Y-88206427D02*
X211895428Y-88606427D01*
X211895428Y-88606427D02*
X211895428Y-88206427D01*
%TO.C,R3*%
X206087428Y-103366800D02*
X206087428Y-103709657D01*
X206087428Y-103538228D02*
X205487428Y-103538228D01*
X205487428Y-103538228D02*
X205573142Y-103595371D01*
X205573142Y-103595371D02*
X205630285Y-103652514D01*
X205630285Y-103652514D02*
X205658857Y-103709657D01*
X205487428Y-102823942D02*
X205487428Y-103109656D01*
X205487428Y-103109656D02*
X205773142Y-103138228D01*
X205773142Y-103138228D02*
X205744571Y-103109656D01*
X205744571Y-103109656D02*
X205716000Y-103052514D01*
X205716000Y-103052514D02*
X205716000Y-102909656D01*
X205716000Y-102909656D02*
X205744571Y-102852514D01*
X205744571Y-102852514D02*
X205773142Y-102823942D01*
X205773142Y-102823942D02*
X205830285Y-102795371D01*
X205830285Y-102795371D02*
X205973142Y-102795371D01*
X205973142Y-102795371D02*
X206030285Y-102823942D01*
X206030285Y-102823942D02*
X206058857Y-102852514D01*
X206058857Y-102852514D02*
X206087428Y-102909656D01*
X206087428Y-102909656D02*
X206087428Y-103052514D01*
X206087428Y-103052514D02*
X206058857Y-103109656D01*
X206058857Y-103109656D02*
X206030285Y-103138228D01*
X205487428Y-102423942D02*
X205487428Y-102366799D01*
X205487428Y-102366799D02*
X205516000Y-102309656D01*
X205516000Y-102309656D02*
X205544571Y-102281085D01*
X205544571Y-102281085D02*
X205601714Y-102252513D01*
X205601714Y-102252513D02*
X205716000Y-102223942D01*
X205716000Y-102223942D02*
X205858857Y-102223942D01*
X205858857Y-102223942D02*
X205973142Y-102252513D01*
X205973142Y-102252513D02*
X206030285Y-102281085D01*
X206030285Y-102281085D02*
X206058857Y-102309656D01*
X206058857Y-102309656D02*
X206087428Y-102366799D01*
X206087428Y-102366799D02*
X206087428Y-102423942D01*
X206087428Y-102423942D02*
X206058857Y-102481085D01*
X206058857Y-102481085D02*
X206030285Y-102509656D01*
X206030285Y-102509656D02*
X205973142Y-102538227D01*
X205973142Y-102538227D02*
X205858857Y-102566799D01*
X205858857Y-102566799D02*
X205716000Y-102566799D01*
X205716000Y-102566799D02*
X205601714Y-102538227D01*
X205601714Y-102538227D02*
X205544571Y-102509656D01*
X205544571Y-102509656D02*
X205516000Y-102481085D01*
X205516000Y-102481085D02*
X205487428Y-102423942D01*
X206087428Y-101623941D02*
X205801714Y-101823941D01*
X206087428Y-101966798D02*
X205487428Y-101966798D01*
X205487428Y-101966798D02*
X205487428Y-101738227D01*
X205487428Y-101738227D02*
X205516000Y-101681084D01*
X205516000Y-101681084D02*
X205544571Y-101652513D01*
X205544571Y-101652513D02*
X205601714Y-101623941D01*
X205601714Y-101623941D02*
X205687428Y-101623941D01*
X205687428Y-101623941D02*
X205744571Y-101652513D01*
X205744571Y-101652513D02*
X205773142Y-101681084D01*
X205773142Y-101681084D02*
X205801714Y-101738227D01*
X205801714Y-101738227D02*
X205801714Y-101966798D01*
%TO.C,U1*%
X211870428Y-100300000D02*
X211270428Y-100300000D01*
X211270428Y-100300000D02*
X211699000Y-100100000D01*
X211699000Y-100100000D02*
X211270428Y-99900000D01*
X211270428Y-99900000D02*
X211870428Y-99900000D01*
X211699000Y-99642858D02*
X211699000Y-99357144D01*
X211870428Y-99700001D02*
X211270428Y-99500001D01*
X211270428Y-99500001D02*
X211870428Y-99300001D01*
X211270428Y-99185715D02*
X211270428Y-98842858D01*
X211870428Y-99014286D02*
X211270428Y-99014286D01*
X211870428Y-98328572D02*
X211870428Y-98671429D01*
X211870428Y-98500000D02*
X211270428Y-98500000D01*
X211270428Y-98500000D02*
X211356142Y-98557143D01*
X211356142Y-98557143D02*
X211413285Y-98614286D01*
X211413285Y-98614286D02*
X211441857Y-98671429D01*
X211470428Y-97814286D02*
X211870428Y-97814286D01*
X211241857Y-97957143D02*
X211670428Y-98100000D01*
X211670428Y-98100000D02*
X211670428Y-97728571D01*
X211699000Y-97528571D02*
X211699000Y-97242857D01*
X211870428Y-97585714D02*
X211270428Y-97385714D01*
X211270428Y-97385714D02*
X211870428Y-97185714D01*
X211870428Y-96642856D02*
X211584714Y-96842856D01*
X211870428Y-96985713D02*
X211270428Y-96985713D01*
X211270428Y-96985713D02*
X211270428Y-96757142D01*
X211270428Y-96757142D02*
X211299000Y-96699999D01*
X211299000Y-96699999D02*
X211327571Y-96671428D01*
X211327571Y-96671428D02*
X211384714Y-96642856D01*
X211384714Y-96642856D02*
X211470428Y-96642856D01*
X211470428Y-96642856D02*
X211527571Y-96671428D01*
X211527571Y-96671428D02*
X211556142Y-96699999D01*
X211556142Y-96699999D02*
X211584714Y-96757142D01*
X211584714Y-96757142D02*
X211584714Y-96985713D01*
X211270428Y-96442856D02*
X211270428Y-96042856D01*
X211270428Y-96042856D02*
X211870428Y-96442856D01*
X211870428Y-96442856D02*
X211870428Y-96042856D01*
%TO.C,D1*%
X219320428Y-93814286D02*
X219320428Y-94157143D01*
X219320428Y-93985714D02*
X218720428Y-93985714D01*
X218720428Y-93985714D02*
X218806142Y-94042857D01*
X218806142Y-94042857D02*
X218863285Y-94100000D01*
X218863285Y-94100000D02*
X218891857Y-94157143D01*
X219320428Y-93557142D02*
X218720428Y-93557142D01*
X218720428Y-93557142D02*
X219320428Y-93214285D01*
X219320428Y-93214285D02*
X218720428Y-93214285D01*
X218920428Y-92671429D02*
X219320428Y-92671429D01*
X218691857Y-92814286D02*
X219120428Y-92957143D01*
X219120428Y-92957143D02*
X219120428Y-92585714D01*
X219320428Y-92042857D02*
X219320428Y-92385714D01*
X219320428Y-92214285D02*
X218720428Y-92214285D01*
X218720428Y-92214285D02*
X218806142Y-92271428D01*
X218806142Y-92271428D02*
X218863285Y-92328571D01*
X218863285Y-92328571D02*
X218891857Y-92385714D01*
X218920428Y-91528571D02*
X219320428Y-91528571D01*
X218691857Y-91671428D02*
X219120428Y-91814285D01*
X219120428Y-91814285D02*
X219120428Y-91442856D01*
X218977571Y-91128570D02*
X218949000Y-91185713D01*
X218949000Y-91185713D02*
X218920428Y-91214284D01*
X218920428Y-91214284D02*
X218863285Y-91242856D01*
X218863285Y-91242856D02*
X218834714Y-91242856D01*
X218834714Y-91242856D02*
X218777571Y-91214284D01*
X218777571Y-91214284D02*
X218749000Y-91185713D01*
X218749000Y-91185713D02*
X218720428Y-91128570D01*
X218720428Y-91128570D02*
X218720428Y-91014284D01*
X218720428Y-91014284D02*
X218749000Y-90957142D01*
X218749000Y-90957142D02*
X218777571Y-90928570D01*
X218777571Y-90928570D02*
X218834714Y-90899999D01*
X218834714Y-90899999D02*
X218863285Y-90899999D01*
X218863285Y-90899999D02*
X218920428Y-90928570D01*
X218920428Y-90928570D02*
X218949000Y-90957142D01*
X218949000Y-90957142D02*
X218977571Y-91014284D01*
X218977571Y-91014284D02*
X218977571Y-91128570D01*
X218977571Y-91128570D02*
X219006142Y-91185713D01*
X219006142Y-91185713D02*
X219034714Y-91214284D01*
X219034714Y-91214284D02*
X219091857Y-91242856D01*
X219091857Y-91242856D02*
X219206142Y-91242856D01*
X219206142Y-91242856D02*
X219263285Y-91214284D01*
X219263285Y-91214284D02*
X219291857Y-91185713D01*
X219291857Y-91185713D02*
X219320428Y-91128570D01*
X219320428Y-91128570D02*
X219320428Y-91014284D01*
X219320428Y-91014284D02*
X219291857Y-90957142D01*
X219291857Y-90957142D02*
X219263285Y-90928570D01*
X219263285Y-90928570D02*
X219206142Y-90899999D01*
X219206142Y-90899999D02*
X219091857Y-90899999D01*
X219091857Y-90899999D02*
X219034714Y-90928570D01*
X219034714Y-90928570D02*
X219006142Y-90957142D01*
X219006142Y-90957142D02*
X218977571Y-91014284D01*
X218720428Y-90699998D02*
X219320428Y-90557141D01*
X219320428Y-90557141D02*
X218891857Y-90442855D01*
X218891857Y-90442855D02*
X219320428Y-90328570D01*
X219320428Y-90328570D02*
X218720428Y-90185713D01*
X219291857Y-89985713D02*
X219320428Y-89899999D01*
X219320428Y-89899999D02*
X219320428Y-89757141D01*
X219320428Y-89757141D02*
X219291857Y-89699999D01*
X219291857Y-89699999D02*
X219263285Y-89671427D01*
X219263285Y-89671427D02*
X219206142Y-89642856D01*
X219206142Y-89642856D02*
X219149000Y-89642856D01*
X219149000Y-89642856D02*
X219091857Y-89671427D01*
X219091857Y-89671427D02*
X219063285Y-89699999D01*
X219063285Y-89699999D02*
X219034714Y-89757141D01*
X219034714Y-89757141D02*
X219006142Y-89871427D01*
X219006142Y-89871427D02*
X218977571Y-89928570D01*
X218977571Y-89928570D02*
X218949000Y-89957141D01*
X218949000Y-89957141D02*
X218891857Y-89985713D01*
X218891857Y-89985713D02*
X218834714Y-89985713D01*
X218834714Y-89985713D02*
X218777571Y-89957141D01*
X218777571Y-89957141D02*
X218749000Y-89928570D01*
X218749000Y-89928570D02*
X218720428Y-89871427D01*
X218720428Y-89871427D02*
X218720428Y-89728570D01*
X218720428Y-89728570D02*
X218749000Y-89642856D01*
D12*
%TO.C,R2*%
X205005400Y-102478621D02*
X205005400Y-102804179D01*
X203985400Y-102478621D02*
X203985400Y-102804179D01*
%TO.C,R5*%
X218924600Y-102478621D02*
X218924600Y-102804179D01*
X217904600Y-102478621D02*
X217904600Y-102804179D01*
%TO.C,RV1*%
X214397600Y-76869200D02*
X212377600Y-76869200D01*
X214397600Y-76869200D02*
X214397600Y-78388200D01*
X213387600Y-76869200D02*
X213387600Y-77628200D01*
X212377600Y-76869200D02*
X212377600Y-78388200D01*
X214397600Y-78388200D02*
X212377600Y-78388200D01*
X214777600Y-78389200D02*
X211797600Y-78389200D01*
X214777600Y-78389200D02*
X214777600Y-81215200D01*
X210806600Y-78389200D02*
X207827600Y-78389200D01*
X207827600Y-78389200D02*
X207827600Y-81215200D01*
X214777600Y-82514200D02*
X214777600Y-85339200D01*
X207827600Y-82514200D02*
X207827600Y-85339200D01*
X214777600Y-85339200D02*
X207827600Y-85339200D01*
%TO.C,C13*%
X219213307Y-78950000D02*
X219213307Y-79450000D01*
X219463307Y-79200000D02*
X218963307Y-79200000D01*
X218848870Y-79690000D02*
X218713307Y-79690000D01*
X218848870Y-79690000D02*
X219913307Y-80754437D01*
X216457744Y-79690000D02*
X216593307Y-79690000D01*
X216457744Y-79690000D02*
X215393307Y-80754437D01*
X219913307Y-80754437D02*
X219913307Y-84210000D01*
X215393307Y-80754437D02*
X215393307Y-84210000D01*
X219913307Y-84210000D02*
X218713307Y-84210000D01*
X215393307Y-84210000D02*
X216593307Y-84210000D01*
%TO.C,C1*%
X204899800Y-90002579D02*
X204899800Y-89677021D01*
X205919800Y-90002579D02*
X205919800Y-89677021D01*
%TO.C,C2*%
X217237221Y-97690000D02*
X217562779Y-97690000D01*
X217237221Y-98710000D02*
X217562779Y-98710000D01*
%TO.C,C12*%
X206510000Y-78950000D02*
X206510000Y-79450000D01*
X206760000Y-79200000D02*
X206260000Y-79200000D01*
X206145563Y-79690000D02*
X206010000Y-79690000D01*
X206145563Y-79690000D02*
X207210000Y-80754437D01*
X203754437Y-79690000D02*
X203890000Y-79690000D01*
X203754437Y-79690000D02*
X202690000Y-80754437D01*
X207210000Y-80754437D02*
X207210000Y-84210000D01*
X202690000Y-80754437D02*
X202690000Y-84210000D01*
X207210000Y-84210000D02*
X206010000Y-84210000D01*
X202690000Y-84210000D02*
X203890000Y-84210000D01*
%TO.C,R4*%
X211762779Y-104319800D02*
X211437221Y-104319800D01*
X211762779Y-103299800D02*
X211437221Y-103299800D01*
%TO.C,C3*%
X214137221Y-85824600D02*
X214462779Y-85824600D01*
X214137221Y-86844600D02*
X214462779Y-86844600D01*
%TO.C,R1*%
X211114421Y-85824600D02*
X211439979Y-85824600D01*
X211114421Y-86844600D02*
X211439979Y-86844600D01*
%TO.C,U2*%
X211625000Y-87575000D02*
X208175000Y-87575000D01*
X211625000Y-87575000D02*
X213575000Y-87575000D01*
X211625000Y-92695000D02*
X209675000Y-92695000D01*
X211625000Y-92695000D02*
X213575000Y-92695000D01*
%TO.C,R3*%
X207520000Y-102478621D02*
X207520000Y-102804179D01*
X206500000Y-102478621D02*
X206500000Y-102804179D01*
%TO.C,U1*%
X211650000Y-93765000D02*
X208200000Y-93765000D01*
X211650000Y-93765000D02*
X213600000Y-93765000D01*
X211650000Y-102635000D02*
X209700000Y-102635000D01*
X211650000Y-102635000D02*
X213600000Y-102635000D01*
%TO.C,D1*%
X218100000Y-89250000D02*
X219800000Y-89250000D01*
X218100000Y-89250000D02*
X218100000Y-86700000D01*
X219800000Y-89250000D02*
X219800000Y-86700000D01*
D13*
X218600000Y-88050000D02*
X219300000Y-88050000D01*
X218950000Y-88050000D02*
X218950000Y-88250000D01*
X218950000Y-88050000D02*
X218600000Y-87550000D01*
X218600000Y-87550000D02*
X219300000Y-87550000D01*
X218950000Y-87550000D02*
X218950000Y-87300000D01*
X219300000Y-87550000D02*
X218950000Y-88050000D01*
%TD*%
%LPC*%
D14*
%TO.C,R2*%
X204495400Y-101741400D03*
X204495400Y-103541400D03*
%TD*%
%TO.C,R5*%
X218414600Y-101741400D03*
X218414600Y-103541400D03*
%TD*%
D15*
%TO.C,RV1*%
X213842600Y-81864200D03*
X211302600Y-79324200D03*
X211302600Y-81864200D03*
X208762600Y-81864200D03*
%TD*%
D16*
%TO.C,C13*%
X217653307Y-80150000D03*
X217653307Y-83750000D03*
%TD*%
D17*
%TO.C,C1*%
X205409800Y-90739800D03*
X205409800Y-88939800D03*
%TD*%
D18*
%TO.C,C2*%
X216500000Y-98200000D03*
X218300000Y-98200000D03*
%TD*%
D16*
%TO.C,C12*%
X204950000Y-80150000D03*
X204950000Y-83750000D03*
%TD*%
D19*
%TO.C,R4*%
X212500000Y-103809800D03*
X210700000Y-103809800D03*
%TD*%
D18*
%TO.C,C3*%
X213400000Y-86334600D03*
X215200000Y-86334600D03*
%TD*%
%TO.C,R1*%
X210377200Y-86334600D03*
X212177200Y-86334600D03*
%TD*%
D20*
%TO.C,U2*%
X209050000Y-88230000D03*
X209050000Y-89500000D03*
X209050000Y-90770000D03*
X209050000Y-92040000D03*
X214200000Y-92040000D03*
X214200000Y-90770000D03*
X214200000Y-89500000D03*
X214200000Y-88230000D03*
%TD*%
D14*
%TO.C,R3*%
X207010000Y-101741400D03*
X207010000Y-103541400D03*
%TD*%
D21*
%TO.C,U1*%
X209175000Y-94390000D03*
X209175000Y-95660000D03*
X209175000Y-96930000D03*
X209175000Y-98200000D03*
X209175000Y-99470000D03*
X209175000Y-100740000D03*
X209175000Y-102010000D03*
X214125000Y-102010000D03*
X214125000Y-100740000D03*
X214125000Y-99470000D03*
X214125000Y-98200000D03*
X214125000Y-96930000D03*
X214125000Y-95660000D03*
X214125000Y-94390000D03*
%TD*%
D22*
%TO.C,D1*%
X218950000Y-88800000D03*
X218950000Y-86700000D03*
%TD*%
D23*
X219150500Y-93296583D03*
X218414600Y-101741400D03*
X217551399Y-89331800D03*
X203602170Y-92066322D03*
X203848512Y-93249888D03*
X210892336Y-94500109D03*
X218450999Y-90650000D03*
X211171812Y-91494588D03*
X206502000Y-86893400D03*
X204950000Y-80150000D03*
X212797600Y-102010000D03*
X217653305Y-80150001D03*
X207035400Y-103555800D03*
X215200001Y-86334602D03*
X203860400Y-99430000D03*
X204950000Y-83750000D03*
X218299998Y-98200000D03*
X207010000Y-101741398D03*
X210972400Y-102590600D03*
X208991200Y-103784400D03*
X203517500Y-100876100D03*
X212090000Y-98348800D03*
M02*
